<?xml version="1.0" standalone="no"?>
<!DOCTYPE svg PUBLIC "-//W3C//DTD SVG 1.1//EN" "http://www.w3.org/Graphics/SVG/1.1/DTD/svg11.dtd">
<!--Generator: Xara Xtreme (www.xara.com), SVG filter version: 1.0.0.13-->
<svg stroke-width="0.501" stroke-linejoin="bevel" fill-rule="evenodd" xmlns:xlink="http://www.w3.org/1999/xlink" xmlns="http://www.w3.org/2000/svg" version="1.1" overflow="visible" width="60pt" height="60pt" viewBox="0 0 60 60">
 <defs>
  <marker id="DefaultArrow2" markerUnits="strokeWidth" viewBox="0 0 1 1" markerWidth="1" markerHeight="1" overflow="visible" orient="auto">
   <!-- REF_ARROW_STRAIGHT (-2) -->
   <g transform="scale(0.0092592592)">
    <!-- 1/108 -->
    <path d="M -9 54 L -9 -54 L 117 0 z"/>
   </g>
  </marker>
  <marker id="DefaultArrow3" markerUnits="strokeWidth" viewBox="0 0 1 1" markerWidth="1" markerHeight="1" overflow="visible" orient="auto">
   <!-- REF_ARROW_ANGLED -->
   <g transform="scale(0.0092592592)">
    <path d="M -27 54 L -9 0 L -27 -54 L 135 0 z"/>
   </g>
  </marker>
  <marker id="DefaultArrow4" markerUnits="strokeWidth" viewBox="0 0 1 1" markerWidth="1" markerHeight="1" overflow="visible" orient="auto">
   <!-- REF_ARROW_ROUNDED -->
   <g transform="scale(0.0092592592)">
    <path d="M -9,0 L -9,-45 C -9,-51.708 2.808,-56.580 9,-54 L 117,-9 C 120.916,-7.369 126.000,-4.242 126,0 C 126,4.242 120.916,7.369 117,9 L 9,54 C 2.808,56.580 -9,51.708 -9,45 z"/>
   </g>
  </marker>
  <marker id="DefaultArrow5" markerUnits="strokeWidth" viewBox="0 0 1 1" markerWidth="1" markerHeight="1" overflow="visible" orient="auto">
   <!-- REF_ARROW_SPOT -->
   <g transform="scale(0.0092592592)">
    <path d="M -54, 0 C -54,29.807 -29.807,54 0,54 C 29.807,54 54,29.807 54,0 C 54,-29.807 29.807,-54 0,-54 C -29.807,-54 -54,-29.807 -54,0 z"/>
   </g>
  </marker>
  <marker id="DefaultArrow6" markerUnits="strokeWidth" viewBox="0 0 1 1" markerWidth="1" markerHeight="1" overflow="visible" orient="auto">
   <!-- REF_ARROW_DIAMOND -->
   <g transform="scale(0.0092592592)">
    <path d="M -63,0 L 0,63 L 63,0 L 0,-63 z"/>
   </g>
  </marker>
  <marker id="DefaultArrow7" markerUnits="strokeWidth" viewBox="0 0 1 1" markerWidth="1" markerHeight="1" overflow="visible" orient="auto">
   <!-- REF_ARROW_FEATHER -->
   <g transform="scale(0.0092592592)">
    <path d="M 18,-54 L 108,-54 L 63,0 L 108,54 L 18, 54 L -36,0 z"/>
   </g>
  </marker>
  <marker id="DefaultArrow8" markerUnits="strokeWidth" viewBox="0 0 1 1" markerWidth="1" markerHeight="1" overflow="visible" orient="auto">
   <!-- REF_ARROW_FEATHER2 -->
   <g transform="scale(0.0092592592)">
    <path d="M -36,0 L 18,-54 L 54,-54 L 18,-18 L 27,-18 L 63,-54 L 99,-54 L 63,-18 L 72,-18 L 108,-54 L 144,-54 L 90,0 L 144,54 L 108,54 L 72,18 L 63,18 L 99,54 L 63,54 L 27,18 L 18,18 L 54,54 L 18,54 z"/>
   </g>
  </marker>
  <marker id="DefaultArrow9" markerUnits="strokeWidth" viewBox="0 0 1 1" markerWidth="1" markerHeight="1" overflow="visible" orient="auto">
   <!-- REF_ARROW_HOLLOWDIAMOND -->
   <g transform="scale(0.0092592592)">
    <path d="M 0,45 L -45,0 L 0, -45 L 45, 0 z M 0, 63 L-63, 0 L 0, -63 L 63, 0 z"/>
   </g>
  </marker>
  <filter id="StainedFilter">
   <feBlend mode="multiply" in2="BackgroundImage" in="SourceGraphic" result="blend"/>
   <feComposite in="blend" in2="SourceAlpha" operator="in" result="comp"/>
  </filter>
  <filter id="BleachFilter">
   <feBlend mode="screen" in2="BackgroundImage" in="SourceGraphic" result="blend"/>
   <feComposite in="blend" in2="SourceAlpha" operator="in" result="comp"/>
  </filter>
  <filter id="InvertTransparencyBitmapFilter">
   <feComponentTransfer>
    <feFuncR type="gamma" amplitude="1.055" exponent=".416666666" offset="-0.055"/>
    <feFuncG type="gamma" amplitude="1.055" exponent=".416666666" offset="-0.055"/>
    <feFuncB type="gamma" amplitude="1.055" exponent=".416666666" offset="-0.055"/>
   </feComponentTransfer>
   <feComponentTransfer>
    <feFuncR type="linear" slope="-1" intercept="1"/>
    <feFuncG type="linear" slope="-1" intercept="1"/>
    <feFuncB type="linear" slope="-1" intercept="1"/>
    <feFuncA type="linear" slope="1" intercept="0"/>
   </feComponentTransfer>
   <feComponentTransfer>
    <feFuncR type="gamma" amplitude="1" exponent="2.4" offset="0"/>
    <feFuncG type="gamma" amplitude="1" exponent="2.4" offset="0"/>
    <feFuncB type="gamma" amplitude="1" exponent="2.4" offset="0"/>
   </feComponentTransfer>
  </filter>
 </defs>
 <g id="Document" fill="none" stroke="black" font-family="Times New Roman" font-size="16" transform="scale(1 -1)">
  <g id="Spread" transform="translate(0 -60)">
   <g id="Layer 1">
    <g id="Group" stroke-linecap="round">
     <path d="M 0,60 L 0,0.002 L 60,0.002 L 60,60 L 0,60 Z" stroke-linejoin="miter" stroke="none" stroke-width="0.562" marker-start="none" marker-end="none" stroke-miterlimit="79.8403193612775"/>
     <g id="Group_1" stroke-linejoin="round" stroke-width="1.5" stroke-miterlimit="79.8403193612775">
      <rect x="0.751" y="23.244" width="58.498" height="21.009" stroke="#287bd1"/>
      <path d="M 9.375,18 C 9.996,18 10.5,17.496 10.5,16.875 C 10.5,16.254 9.996,15.75 9.375,15.75 C 8.754,15.75 8.25,16.254 8.25,16.875 C 8.25,17.496 8.754,18 9.375,18 Z" stroke="none" fill="#287bd1" marker-start="none" marker-end="none"/>
      <path d="M 19.873,18.002 C 20.494,18.002 20.998,17.498 20.998,16.877 C 20.998,16.256 20.494,15.752 19.873,15.752 C 19.252,15.752 18.748,16.256 18.748,16.877 C 18.748,17.498 19.252,18.002 19.873,18.002 Z" stroke="none" fill="#287bd1" marker-start="none" marker-end="none"/>
      <path d="M 51.75,18.75 L 51.75,12.735" fill="none" stroke="#287bd1"/>
      <path d="M 50.25,12.75 L 53.25,12.75" fill="none" stroke="#287bd1"/>
      <path d="M 36.75,19.496 L 56.251,19.496 L 56.251,23.252" fill="none" stroke="#287bd1"/>
      <path d="M 9.376,20.998 C 11.651,20.998 13.498,19.15 13.498,16.874 C 13.498,14.599 11.651,12.752 9.376,12.752 C 7.1,12.752 5.252,14.599 5.252,16.874 C 5.252,19.15 7.1,20.998 9.376,20.998 Z" stroke="#287bd1" marker-start="none" marker-end="none"/>
      <path d="M 19.874,21 C 22.149,21 23.996,19.152 23.996,16.876 C 23.996,14.601 22.149,12.754 19.874,12.754 C 17.598,12.754 15.75,14.601 15.75,16.876 C 15.75,19.152 17.598,21 19.874,21 Z" stroke="#287bd1" marker-start="none" marker-end="none"/>
      <path d="M 30.378,21 C 32.653,21 34.5,19.152 34.5,16.876 C 34.5,14.601 32.653,12.754 30.378,12.754 C 28.102,12.754 26.254,14.601 26.254,16.876 C 26.254,19.152 28.102,21 30.378,21 Z" stroke="#287bd1" marker-start="none" marker-end="none"/>
      <path d="M 30.377,18.002 C 30.998,18.002 31.502,17.498 31.502,16.877 C 31.502,16.256 30.998,15.752 30.377,15.752 C 29.756,15.752 29.252,16.256 29.252,16.877 C 29.252,17.498 29.756,18.002 30.377,18.002 Z" stroke="none" fill="#287bd1" marker-start="none" marker-end="none"/>
      <path d="M 3,16.5 L 3,16.873 C 3,20.393 5.857,23.25 9.377,23.25 L 9.75,23.25" fill="none" stroke="#287bd1"/>
      <path d="M 36.75,16.5 L 36.75,16.873 C 36.75,20.393 33.893,23.25 30.373,23.25 L 30,23.25" fill="none" stroke="#287bd1"/>
     </g>
    </g>
   </g>
  </g>
 </g>
</svg>
