<?xml version="1.0" standalone="no"?>
<!DOCTYPE svg PUBLIC "-//W3C//DTD SVG 1.1//EN" "http://www.w3.org/Graphics/SVG/1.1/DTD/svg11.dtd">
<!--Generator: Xara Xtreme (www.xara.com), SVG filter version: 1.0.0.13-->
<svg stroke-width="0.501" stroke-linejoin="bevel" fill-rule="evenodd" xmlns:xlink="http://www.w3.org/1999/xlink" xmlns="http://www.w3.org/2000/svg" version="1.1" overflow="visible" width="60pt" height="60pt" viewBox="0 0 60 60">
 <defs>
  <marker id="DefaultArrow2" markerUnits="strokeWidth" viewBox="0 0 1 1" markerWidth="1" markerHeight="1" overflow="visible" orient="auto">
   <!-- REF_ARROW_STRAIGHT (-2) -->
   <g transform="scale(0.0092592592)">
    <!-- 1/108 -->
    <path d="M -9 54 L -9 -54 L 117 0 z"/>
   </g>
  </marker>
  <marker id="DefaultArrow3" markerUnits="strokeWidth" viewBox="0 0 1 1" markerWidth="1" markerHeight="1" overflow="visible" orient="auto">
   <!-- REF_ARROW_ANGLED -->
   <g transform="scale(0.0092592592)">
    <path d="M -27 54 L -9 0 L -27 -54 L 135 0 z"/>
   </g>
  </marker>
  <marker id="DefaultArrow4" markerUnits="strokeWidth" viewBox="0 0 1 1" markerWidth="1" markerHeight="1" overflow="visible" orient="auto">
   <!-- REF_ARROW_ROUNDED -->
   <g transform="scale(0.0092592592)">
    <path d="M -9,0 L -9,-45 C -9,-51.708 2.808,-56.580 9,-54 L 117,-9 C 120.916,-7.369 126.000,-4.242 126,0 C 126,4.242 120.916,7.369 117,9 L 9,54 C 2.808,56.580 -9,51.708 -9,45 z"/>
   </g>
  </marker>
  <marker id="DefaultArrow5" markerUnits="strokeWidth" viewBox="0 0 1 1" markerWidth="1" markerHeight="1" overflow="visible" orient="auto">
   <!-- REF_ARROW_SPOT -->
   <g transform="scale(0.0092592592)">
    <path d="M -54, 0 C -54,29.807 -29.807,54 0,54 C 29.807,54 54,29.807 54,0 C 54,-29.807 29.807,-54 0,-54 C -29.807,-54 -54,-29.807 -54,0 z"/>
   </g>
  </marker>
  <marker id="DefaultArrow6" markerUnits="strokeWidth" viewBox="0 0 1 1" markerWidth="1" markerHeight="1" overflow="visible" orient="auto">
   <!-- REF_ARROW_DIAMOND -->
   <g transform="scale(0.0092592592)">
    <path d="M -63,0 L 0,63 L 63,0 L 0,-63 z"/>
   </g>
  </marker>
  <marker id="DefaultArrow7" markerUnits="strokeWidth" viewBox="0 0 1 1" markerWidth="1" markerHeight="1" overflow="visible" orient="auto">
   <!-- REF_ARROW_FEATHER -->
   <g transform="scale(0.0092592592)">
    <path d="M 18,-54 L 108,-54 L 63,0 L 108,54 L 18, 54 L -36,0 z"/>
   </g>
  </marker>
  <marker id="DefaultArrow8" markerUnits="strokeWidth" viewBox="0 0 1 1" markerWidth="1" markerHeight="1" overflow="visible" orient="auto">
   <!-- REF_ARROW_FEATHER2 -->
   <g transform="scale(0.0092592592)">
    <path d="M -36,0 L 18,-54 L 54,-54 L 18,-18 L 27,-18 L 63,-54 L 99,-54 L 63,-18 L 72,-18 L 108,-54 L 144,-54 L 90,0 L 144,54 L 108,54 L 72,18 L 63,18 L 99,54 L 63,54 L 27,18 L 18,18 L 54,54 L 18,54 z"/>
   </g>
  </marker>
  <marker id="DefaultArrow9" markerUnits="strokeWidth" viewBox="0 0 1 1" markerWidth="1" markerHeight="1" overflow="visible" orient="auto">
   <!-- REF_ARROW_HOLLOWDIAMOND -->
   <g transform="scale(0.0092592592)">
    <path d="M 0,45 L -45,0 L 0, -45 L 45, 0 z M 0, 63 L-63, 0 L 0, -63 L 63, 0 z"/>
   </g>
  </marker>
  <filter id="StainedFilter">
   <feBlend mode="multiply" in2="BackgroundImage" in="SourceGraphic" result="blend"/>
   <feComposite in="blend" in2="SourceAlpha" operator="in" result="comp"/>
  </filter>
  <filter id="BleachFilter">
   <feBlend mode="screen" in2="BackgroundImage" in="SourceGraphic" result="blend"/>
   <feComposite in="blend" in2="SourceAlpha" operator="in" result="comp"/>
  </filter>
  <filter id="InvertTransparencyBitmapFilter">
   <feComponentTransfer>
    <feFuncR type="gamma" amplitude="1.055" exponent=".416666666" offset="-0.055"/>
    <feFuncG type="gamma" amplitude="1.055" exponent=".416666666" offset="-0.055"/>
    <feFuncB type="gamma" amplitude="1.055" exponent=".416666666" offset="-0.055"/>
   </feComponentTransfer>
   <feComponentTransfer>
    <feFuncR type="linear" slope="-1" intercept="1"/>
    <feFuncG type="linear" slope="-1" intercept="1"/>
    <feFuncB type="linear" slope="-1" intercept="1"/>
    <feFuncA type="linear" slope="1" intercept="0"/>
   </feComponentTransfer>
   <feComponentTransfer>
    <feFuncR type="gamma" amplitude="1" exponent="2.4" offset="0"/>
    <feFuncG type="gamma" amplitude="1" exponent="2.4" offset="0"/>
    <feFuncB type="gamma" amplitude="1" exponent="2.4" offset="0"/>
   </feComponentTransfer>
  </filter>
 </defs>
 <g id="Document" fill="none" stroke="black" font-family="Times New Roman" font-size="16" transform="scale(1 -1)">
  <g id="Spread" transform="translate(0 -60)">
   <g id="Layer 1">
    <g id="Group" stroke-linecap="round">
     <path d="M 0,60 L 0,0.002 L 60,0.002 L 60,60 L 0,60 Z" stroke-linejoin="miter" stroke="none" stroke-width="0.562" marker-start="none" marker-end="none" stroke-miterlimit="79.8403193612775"/>
     <path d="M 41.251,20.25 C 43.32,20.25 45,18.569 45,16.499 C 45,14.43 43.32,12.75 41.251,12.75 C 39.181,12.75 37.5,14.43 37.5,16.499 C 37.5,18.569 39.181,20.25 41.251,20.25 Z" stroke-linejoin="round" stroke-width="1.5" stroke="#287bd1" marker-start="none" marker-end="none" stroke-miterlimit="79.8403193612775"/>
     <path d="M 16.501,20.25 C 18.57,20.25 20.25,18.569 20.25,16.499 C 20.25,14.43 18.57,12.75 16.501,12.75 C 14.431,12.75 12.75,14.43 12.75,16.499 C 12.75,18.569 14.431,20.25 16.501,20.25 Z" stroke-linejoin="round" stroke-width="1.5" stroke="#287bd1" marker-start="none" marker-end="none" stroke-miterlimit="79.8403193612775"/>
     <path d="M 10.5,16.498 C 10.5,19.81 13.19,22.5 16.502,22.5 C 19.812,22.5 22.5,19.81 22.5,16.498" fill="none" stroke-linejoin="round" stroke-width="1.5" stroke="#287bd1" stroke-miterlimit="79.8403193612775"/>
     <path d="M 22.5,18 L 35.25,18" fill="none" stroke-linejoin="round" stroke-width="1.5" stroke="#287bd1" stroke-miterlimit="79.8403193612775"/>
     <path d="M 37.27,21 L 21,21" fill="none" stroke-linejoin="round" stroke-width="1.5" stroke="#287bd1" stroke-miterlimit="79.8403193612775"/>
     <path d="M 34.5,21 L 33.75,23.25 L 33.75,40.5 L 36,42.75 L 48.103,40.166 C 49.647,39.704 50.342,38.643 50.737,36.203 L 52.5,25.5 L 52.5,15.75 L 47.25,15.75" fill="none" stroke-linejoin="round" stroke-width="1.5" stroke="#287bd1" stroke-miterlimit="79.8403193612775"/>
     <path d="M 48,36.75 L 37.5,36.75 L 37.5,30 L 41.25,30 L 49.326,28.687 L 48,36.75 Z" stroke-linejoin="round" stroke-width="1.5" stroke="#287bd1" marker-start="none" marker-end="none" stroke-miterlimit="79.8403193612775"/>
     <path d="M 41.25,36.751 L 41.25,30" fill="none" stroke-linejoin="round" stroke-width="1.5" stroke="#287bd1" stroke-miterlimit="79.8403193612775"/>
     <path d="M 52.5,20.25 L 50.256,20.25 L 50.25,24.75 L 52.5,24.75" fill="none" stroke-linejoin="round" stroke-width="1.5" stroke="#287bd1" stroke-miterlimit="79.8403193612775"/>
     <path d="M 10.682,18 L 7.5,18 L 7.5,21 L 12.524,21" fill="none" stroke-linejoin="round" stroke-width="1.5" stroke="#287bd1" stroke-miterlimit="79.8403193612775"/>
     <path d="M 41.25,17.25 C 41.664,17.25 42,16.914 42,16.5 C 42,16.086 41.664,15.75 41.25,15.75 C 40.836,15.75 40.5,16.086 40.5,16.5 C 40.5,16.914 40.836,17.25 41.25,17.25 Z" stroke-linejoin="round" stroke-width="1.5" stroke="none" fill="#287bd1" marker-start="none" marker-end="none" stroke-miterlimit="79.8403193612775"/>
     <path d="M 16.5,17.25 C 16.914,17.25 17.25,16.914 17.25,16.5 C 17.25,16.086 16.914,15.75 16.5,15.75 C 16.086,15.75 15.75,16.086 15.75,16.5 C 15.75,16.914 16.086,17.25 16.5,17.25 Z" stroke-linejoin="round" stroke-width="1.5" stroke="none" fill="#287bd1" marker-start="none" marker-end="none" stroke-miterlimit="79.8403193612775"/>
     <path d="M 47.25,17.999 L 52.5,17.999" fill="none" stroke-linejoin="round" stroke-width="1.5" stroke="#287bd1" stroke-miterlimit="79.8403193612775"/>
     <path d="M 35.25,16.498 C 35.25,19.81 37.94,22.5 41.252,22.5 C 44.041,22.5 46.388,20.59 47.058,18.008" fill="none" stroke-linejoin="round" stroke-width="1.5" stroke="#287bd1" stroke-miterlimit="79.8403193612775"/>
     <path d="M 17.25,22.5 L 23.25,24.75" fill="none" stroke-linejoin="round" stroke-width="1.5" stroke="#287bd1" stroke-miterlimit="79.8403193612775"/>
    </g>
   </g>
  </g>
 </g>
</svg>
