<?xml version="1.0" standalone="no"?>
<!DOCTYPE svg PUBLIC "-//W3C//DTD SVG 1.1//EN" "http://www.w3.org/Graphics/SVG/1.1/DTD/svg11.dtd">
<!--Generator: Xara Xtreme (www.xara.com), SVG filter version: 1.0.0.13-->
<svg stroke-width="0.501" stroke-linejoin="bevel" fill-rule="evenodd" xmlns:xlink="http://www.w3.org/1999/xlink" xmlns="http://www.w3.org/2000/svg" version="1.1" overflow="visible" width="60pt" height="60pt" viewBox="0 0 60 60">
 <defs>
  <marker id="DefaultArrow2" markerUnits="strokeWidth" viewBox="0 0 1 1" markerWidth="1" markerHeight="1" overflow="visible" orient="auto">
   <!-- REF_ARROW_STRAIGHT (-2) -->
   <g transform="scale(0.0092592592)">
    <!-- 1/108 -->
    <path d="M -9 54 L -9 -54 L 117 0 z"/>
   </g>
  </marker>
  <marker id="DefaultArrow3" markerUnits="strokeWidth" viewBox="0 0 1 1" markerWidth="1" markerHeight="1" overflow="visible" orient="auto">
   <!-- REF_ARROW_ANGLED -->
   <g transform="scale(0.0092592592)">
    <path d="M -27 54 L -9 0 L -27 -54 L 135 0 z"/>
   </g>
  </marker>
  <marker id="DefaultArrow4" markerUnits="strokeWidth" viewBox="0 0 1 1" markerWidth="1" markerHeight="1" overflow="visible" orient="auto">
   <!-- REF_ARROW_ROUNDED -->
   <g transform="scale(0.0092592592)">
    <path d="M -9,0 L -9,-45 C -9,-51.708 2.808,-56.580 9,-54 L 117,-9 C 120.916,-7.369 126.000,-4.242 126,0 C 126,4.242 120.916,7.369 117,9 L 9,54 C 2.808,56.580 -9,51.708 -9,45 z"/>
   </g>
  </marker>
  <marker id="DefaultArrow5" markerUnits="strokeWidth" viewBox="0 0 1 1" markerWidth="1" markerHeight="1" overflow="visible" orient="auto">
   <!-- REF_ARROW_SPOT -->
   <g transform="scale(0.0092592592)">
    <path d="M -54, 0 C -54,29.807 -29.807,54 0,54 C 29.807,54 54,29.807 54,0 C 54,-29.807 29.807,-54 0,-54 C -29.807,-54 -54,-29.807 -54,0 z"/>
   </g>
  </marker>
  <marker id="DefaultArrow6" markerUnits="strokeWidth" viewBox="0 0 1 1" markerWidth="1" markerHeight="1" overflow="visible" orient="auto">
   <!-- REF_ARROW_DIAMOND -->
   <g transform="scale(0.0092592592)">
    <path d="M -63,0 L 0,63 L 63,0 L 0,-63 z"/>
   </g>
  </marker>
  <marker id="DefaultArrow7" markerUnits="strokeWidth" viewBox="0 0 1 1" markerWidth="1" markerHeight="1" overflow="visible" orient="auto">
   <!-- REF_ARROW_FEATHER -->
   <g transform="scale(0.0092592592)">
    <path d="M 18,-54 L 108,-54 L 63,0 L 108,54 L 18, 54 L -36,0 z"/>
   </g>
  </marker>
  <marker id="DefaultArrow8" markerUnits="strokeWidth" viewBox="0 0 1 1" markerWidth="1" markerHeight="1" overflow="visible" orient="auto">
   <!-- REF_ARROW_FEATHER2 -->
   <g transform="scale(0.0092592592)">
    <path d="M -36,0 L 18,-54 L 54,-54 L 18,-18 L 27,-18 L 63,-54 L 99,-54 L 63,-18 L 72,-18 L 108,-54 L 144,-54 L 90,0 L 144,54 L 108,54 L 72,18 L 63,18 L 99,54 L 63,54 L 27,18 L 18,18 L 54,54 L 18,54 z"/>
   </g>
  </marker>
  <marker id="DefaultArrow9" markerUnits="strokeWidth" viewBox="0 0 1 1" markerWidth="1" markerHeight="1" overflow="visible" orient="auto">
   <!-- REF_ARROW_HOLLOWDIAMOND -->
   <g transform="scale(0.0092592592)">
    <path d="M 0,45 L -45,0 L 0, -45 L 45, 0 z M 0, 63 L-63, 0 L 0, -63 L 63, 0 z"/>
   </g>
  </marker>
  <filter id="StainedFilter">
   <feBlend mode="multiply" in2="BackgroundImage" in="SourceGraphic" result="blend"/>
   <feComposite in="blend" in2="SourceAlpha" operator="in" result="comp"/>
  </filter>
  <filter id="BleachFilter">
   <feBlend mode="screen" in2="BackgroundImage" in="SourceGraphic" result="blend"/>
   <feComposite in="blend" in2="SourceAlpha" operator="in" result="comp"/>
  </filter>
  <filter id="InvertTransparencyBitmapFilter">
   <feComponentTransfer>
    <feFuncR type="gamma" amplitude="1.055" exponent=".416666666" offset="-0.055"/>
    <feFuncG type="gamma" amplitude="1.055" exponent=".416666666" offset="-0.055"/>
    <feFuncB type="gamma" amplitude="1.055" exponent=".416666666" offset="-0.055"/>
   </feComponentTransfer>
   <feComponentTransfer>
    <feFuncR type="linear" slope="-1" intercept="1"/>
    <feFuncG type="linear" slope="-1" intercept="1"/>
    <feFuncB type="linear" slope="-1" intercept="1"/>
    <feFuncA type="linear" slope="1" intercept="0"/>
   </feComponentTransfer>
   <feComponentTransfer>
    <feFuncR type="gamma" amplitude="1" exponent="2.4" offset="0"/>
    <feFuncG type="gamma" amplitude="1" exponent="2.4" offset="0"/>
    <feFuncB type="gamma" amplitude="1" exponent="2.4" offset="0"/>
   </feComponentTransfer>
  </filter>
 </defs>
 <g id="Document" fill="none" stroke="black" font-family="Times New Roman" font-size="16" transform="scale(1 -1)">
  <g id="Spread" transform="translate(0 -60)">
   <g id="Layer 1">
    <g id="Group" stroke-linecap="round">
     <path d="M 0,60 L 0,0.002 L 60,0.002 L 60,60 L 0,60 Z" stroke-linejoin="miter" stroke="none" stroke-width="0.562" marker-start="none" marker-end="none" stroke-miterlimit="79.8403193612775"/>
     <g id="Group_1" stroke-linejoin="round" stroke-width="1.5" stroke-miterlimit="79.8403193612775">
      <path d="M 0.75,44.252 L 0.75,23.243 L 50.249,23.243 L 50.249,44.252 L 0.75,44.252 Z" stroke="#287bd1" marker-start="none" marker-end="none"/>
      <path d="M 9.375,18 C 9.996,18 10.5,17.496 10.5,16.875 C 10.5,16.254 9.996,15.75 9.375,15.75 C 8.754,15.75 8.25,16.254 8.25,16.875 C 8.25,17.496 8.754,18 9.375,18 Z" stroke="none" fill="#287bd1" marker-start="none" marker-end="none"/>
      <path d="M 15.75,19.496 L 32.255,19.496" fill="none" stroke="#287bd1"/>
      <path d="M 9.376,20.998 C 11.651,20.998 13.498,19.15 13.498,16.874 C 13.498,14.599 11.651,12.752 9.376,12.752 C 7.1,12.752 5.252,14.599 5.252,16.874 C 5.252,19.15 7.1,20.998 9.376,20.998 Z" stroke="#287bd1" marker-start="none" marker-end="none"/>
      <path d="M 38.628,21 C 40.903,21 42.75,19.152 42.75,16.876 C 42.75,14.601 40.903,12.754 38.628,12.754 C 36.352,12.754 34.504,14.601 34.504,16.876 C 34.504,19.152 36.352,21 38.628,21 Z" stroke="#287bd1" marker-start="none" marker-end="none"/>
      <path d="M 38.627,18.002 C 39.248,18.002 39.752,17.498 39.752,16.877 C 39.752,16.256 39.248,15.752 38.627,15.752 C 38.006,15.752 37.502,16.256 37.502,16.877 C 37.502,17.498 38.006,18.002 38.627,18.002 Z" stroke="none" fill="#287bd1" marker-start="none" marker-end="none"/>
      <path d="M 48,21.002 L 59.25,21.002 L 59.25,23.252 L 50.25,23.25" fill="none" stroke="#287bd1"/>
      <path d="M 47.278,19.5 L 47.278,23.252" fill="none" stroke="#287bd1"/>
      <path d="M 3,16.5 L 3,16.873 C 3,20.393 5.857,23.25 9.377,23.25 L 9.75,23.25" fill="none" stroke="#287bd1"/>
      <path d="M 15.75,16.5 L 15.75,16.873 C 15.75,20.393 12.893,23.25 9.373,23.25 L 9,23.25" fill="none" stroke="#287bd1"/>
      <path d="M 32.25,16.5 L 32.25,16.873 C 32.25,20.393 35.107,23.25 38.627,23.25 L 39,23.25" fill="none" stroke="#287bd1"/>
      <path d="M 45,16.5 L 45,16.873 C 45,20.393 42.143,23.25 38.623,23.25 L 38.25,23.25" fill="none" stroke="#287bd1"/>
      <path d="M 45,19.496 L 47.25,19.496" fill="none" stroke="#287bd1"/>
     </g>
    </g>
   </g>
  </g>
 </g>
</svg>
